<svg xmlns="http://www.w3.org/2000/svg" xmlns:xlink="http://www.w3.org/1999/xlink" width="500" zoomAndPan="magnify" viewBox="0 0 375 374.999991" height="500" preserveAspectRatio="xMidYMid meet" version="1.0"><defs><g/><clipPath id="b5cff33753"><path d="M 113 204.113281 L 146 204.113281 L 146 256 L 113 256 Z M 113 204.113281 " clip-rule="nonzero"/></clipPath><clipPath id="022f238919"><path d="M 176 281.214844 L 187 281.214844 L 187 292.371094 L 176 292.371094 Z M 176 281.214844 " clip-rule="nonzero"/></clipPath><clipPath id="49fc39ab88"><path d="M 228 204.113281 L 262 204.113281 L 262 256 L 228 256 Z M 228 204.113281 " clip-rule="nonzero"/></clipPath><clipPath id="08f572be54"><path d="M 136 211 L 227.558594 211 L 227.558594 292.371094 L 136 292.371094 Z M 136 211 " clip-rule="nonzero"/></clipPath><clipPath id="ede7e522b1"><path d="M 72.128906 88.746094 L 303 88.746094 L 303 319.746094 L 72.128906 319.746094 Z M 72.128906 88.746094 " clip-rule="nonzero"/></clipPath></defs><rect x="-37.5" width="450" fill="#ffffff" y="-37.499999" height="449.999989" fill-opacity="1"/><rect x="-37.5" width="450" fill="#2e2e2e" y="-37.499999" height="449.999989" fill-opacity="1"/><g fill="#fdc300" fill-opacity="1"><g transform="translate(95.064686, 160.099955)"><g><path d="M 29.90625 -24.1875 L 14.546875 0 L 9.953125 0 L 5.765625 -24.1875 L 11.515625 -24.1875 L 13.375 -10.59375 L 13.796875 -6.796875 L 16 -10.59375 L 24.140625 -24.1875 Z M 29.90625 -24.1875 "/></g></g></g><g fill="#fdc300" fill-opacity="1"><g transform="translate(119.917469, 160.099955)"><g><path d="M 17.421875 -9.25 L 16.359375 -17.859375 L 11.3125 -9.25 Z M 24.328125 0 L 18.59375 0 L 18 -4.875 L 8.78125 -4.875 L 5.90625 0 L 0.171875 0 L 15.578125 -24.1875 L 20.09375 -24.1875 Z M 24.328125 0 "/></g></g></g><g fill="#fdc300" fill-opacity="1"><g transform="translate(144.770253, 160.099955)"><g><path d="M 9.953125 -10.8125 L 7.46875 0 L 2.140625 0 L 7.71875 -24.1875 L 13.046875 -24.1875 L 10.5625 -13.375 L 20.703125 -24.1875 L 27.53125 -24.1875 L 15.4375 -12.09375 L 22.296875 0 L 15.109375 0 Z M 9.953125 -10.8125 "/></g></g></g><g fill="#fdc300" fill-opacity="1"><g transform="translate(167.063096, 160.099955)"><g><path d="M 21.828125 -24.1875 L 27.171875 -24.1875 L 23.75 -9.421875 C 23.019531 -6.203125 21.582031 -3.765625 19.4375 -2.109375 C 17.289062 -0.460938 14.648438 0.359375 11.515625 0.359375 C 8.367188 0.359375 6.109375 -0.460938 4.734375 -2.109375 C 3.359375 -3.765625 3.035156 -6.203125 3.765625 -9.421875 L 7.1875 -24.1875 L 12.515625 -24.1875 L 9.28125 -10.203125 C 8.90625 -8.546875 8.9375 -7.257812 9.375 -6.34375 C 9.8125 -5.4375 10.929688 -4.984375 12.734375 -4.984375 C 14.578125 -4.984375 15.921875 -5.4375 16.765625 -6.34375 C 17.609375 -7.257812 18.21875 -8.546875 18.59375 -10.203125 Z M 21.828125 -24.1875 "/></g></g></g><g fill="#fdc300" fill-opacity="1"><g transform="translate(190.600358, 160.099955)"><g><path d="M 21.828125 -24.1875 L 27.171875 -24.1875 L 23.75 -9.421875 C 23.019531 -6.203125 21.582031 -3.765625 19.4375 -2.109375 C 17.289062 -0.460938 14.648438 0.359375 11.515625 0.359375 C 8.367188 0.359375 6.109375 -0.460938 4.734375 -2.109375 C 3.359375 -3.765625 3.035156 -6.203125 3.765625 -9.421875 L 7.1875 -24.1875 L 12.515625 -24.1875 L 9.28125 -10.203125 C 8.90625 -8.546875 8.9375 -7.257812 9.375 -6.34375 C 9.8125 -5.4375 10.929688 -4.984375 12.734375 -4.984375 C 14.578125 -4.984375 15.921875 -5.4375 16.765625 -6.34375 C 17.609375 -7.257812 18.21875 -8.546875 18.59375 -10.203125 Z M 21.828125 -24.1875 "/></g></g></g><g fill="#fdc300" fill-opacity="1"><g transform="translate(214.137615, 160.099955)"><g><path d="M 16.890625 -19.34375 L 12.40625 0 L 7.078125 0 L 11.5625 -19.34375 L 4.65625 -19.34375 L 5.765625 -24.1875 L 24.890625 -24.1875 L 23.796875 -19.34375 Z M 16.890625 -19.34375 "/></g></g></g><g fill="#fdc300" fill-opacity="1"><g transform="translate(233.977183, 160.099955)"><g><path d="M 21.828125 -24.1875 L 27.171875 -24.1875 L 23.75 -9.421875 C 23.019531 -6.203125 21.582031 -3.765625 19.4375 -2.109375 C 17.289062 -0.460938 14.648438 0.359375 11.515625 0.359375 C 8.367188 0.359375 6.109375 -0.460938 4.734375 -2.109375 C 3.359375 -3.765625 3.035156 -6.203125 3.765625 -9.421875 L 7.1875 -24.1875 L 12.515625 -24.1875 L 9.28125 -10.203125 C 8.90625 -8.546875 8.9375 -7.257812 9.375 -6.34375 C 9.8125 -5.4375 10.929688 -4.984375 12.734375 -4.984375 C 14.578125 -4.984375 15.921875 -5.4375 16.765625 -6.34375 C 17.609375 -7.257812 18.21875 -8.546875 18.59375 -10.203125 Z M 21.828125 -24.1875 "/></g></g></g><g fill="#fdc300" fill-opacity="1"><g transform="translate(257.514439, 160.099955)"><g><path d="M 12.375 -3.765625 C 12.945312 -3.765625 13.585938 -3.851562 14.296875 -4.03125 C 15.003906 -4.207031 15.648438 -4.503906 16.234375 -4.921875 C 16.816406 -5.335938 17.191406 -5.898438 17.359375 -6.609375 C 17.492188 -7.273438 17.359375 -7.804688 16.953125 -8.203125 C 16.554688 -8.609375 15.972656 -8.941406 15.203125 -9.203125 C 14.429688 -9.472656 13.570312 -9.71875 12.625 -9.9375 C 11.675781 -10.164062 10.742188 -10.4375 9.828125 -10.75 C 8.921875 -11.070312 8.109375 -11.492188 7.390625 -12.015625 C 6.679688 -12.535156 6.164062 -13.210938 5.84375 -14.046875 C 5.53125 -14.878906 5.523438 -15.9375 5.828125 -17.21875 C 6.117188 -18.46875 6.628906 -19.546875 7.359375 -20.453125 C 8.097656 -21.367188 8.96875 -22.128906 9.96875 -22.734375 C 10.976562 -23.347656 12.050781 -23.800781 13.1875 -24.09375 C 14.332031 -24.382812 15.445312 -24.53125 16.53125 -24.53125 C 18.195312 -24.53125 19.691406 -24.269531 21.015625 -23.75 C 22.347656 -23.226562 23.335938 -22.40625 23.984375 -21.28125 C 24.640625 -20.15625 24.773438 -18.671875 24.390625 -16.828125 L 19.234375 -16.828125 C 19.378906 -18.078125 19.144531 -18.941406 18.53125 -19.421875 C 17.914062 -19.910156 16.941406 -20.15625 15.609375 -20.15625 C 15.109375 -20.15625 14.5625 -20.070312 13.96875 -19.90625 C 13.382812 -19.75 12.847656 -19.484375 12.359375 -19.109375 C 11.867188 -18.742188 11.566406 -18.253906 11.453125 -17.640625 C 11.304688 -17.023438 11.441406 -16.535156 11.859375 -16.171875 C 12.273438 -15.816406 12.875 -15.519531 13.65625 -15.28125 C 14.4375 -15.050781 15.296875 -14.828125 16.234375 -14.609375 C 17.171875 -14.398438 18.097656 -14.140625 19.015625 -13.828125 C 19.941406 -13.523438 20.757812 -13.101562 21.46875 -12.5625 C 22.1875 -12.03125 22.695312 -11.335938 23 -10.484375 C 23.3125 -9.628906 23.316406 -8.539062 23.015625 -7.21875 C 22.679688 -5.789062 22.109375 -4.578125 21.296875 -3.578125 C 20.492188 -2.585938 19.539062 -1.789062 18.4375 -1.1875 C 17.332031 -0.582031 16.148438 -0.140625 14.890625 0.140625 C 13.640625 0.421875 12.398438 0.5625 11.171875 0.5625 C 9.835938 0.5625 8.59375 0.394531 7.4375 0.0625 C 6.289062 -0.257812 5.320312 -0.769531 4.53125 -1.46875 C 3.738281 -2.175781 3.1875 -3.066406 2.875 -4.140625 C 2.570312 -5.222656 2.585938 -6.5 2.921875 -7.96875 L 8.328125 -7.96875 C 8.066406 -6.519531 8.347656 -5.457031 9.171875 -4.78125 C 10.003906 -4.101562 11.070312 -3.765625 12.375 -3.765625 Z M 12.375 -3.765625 "/></g></g></g><g clip-path="url(#b5cff33753)"><path fill="#fad02c" d="M 133.722656 254.855469 L 145.691406 210.203125 C 145.820312 209.707031 145.535156 209.195312 145.035156 209.050781 L 126.714844 204.152344 C 126.21875 204.023438 125.707031 204.308594 125.578125 204.808594 L 113.621094 249.460938 C 113.476562 249.957031 113.777344 250.46875 114.261719 250.613281 L 132.582031 255.511719 C 133.082031 255.640625 133.589844 255.355469 133.722656 254.855469 " fill-opacity="1" fill-rule="nonzero"/></g><path fill="#fad02c" d="M 172.261719 274.839844 L 167.691406 279.421875 C 165.894531 281.28125 165.960938 284.242188 167.820312 286.035156 C 169.628906 287.761719 172.496094 287.761719 174.304688 286.035156 L 178.875 281.453125 C 180.667969 279.59375 180.601562 276.632812 178.742188 274.839844 C 176.933594 273.109375 174.066406 273.097656 172.261719 274.839844 " fill-opacity="1" fill-rule="nonzero"/><g clip-path="url(#022f238919)"><path fill="#fad02c" d="M 185.566406 288.351562 C 187.03125 286.859375 187.003906 284.464844 185.511719 282.996094 C 184.03125 281.558594 181.6875 281.558594 180.207031 282.996094 L 177.25 285.96875 C 175.796875 287.476562 175.835938 289.871094 177.339844 291.3125 C 178.808594 292.726562 181.136719 292.726562 182.605469 291.324219 L 185.566406 288.351562 " fill-opacity="1" fill-rule="nonzero"/></g><path fill="#fad02c" d="M 161.746094 266.222656 L 157.320312 270.648438 C 155.117188 272.941406 155.183594 276.566406 157.464844 278.78125 C 159.6875 280.929688 163.210938 280.929688 165.4375 278.78125 L 169.863281 274.355469 C 172.0625 272.074219 172 268.4375 169.71875 266.234375 C 167.492188 264.089844 163.972656 264.089844 161.746094 266.222656 " fill-opacity="1" fill-rule="nonzero"/><path fill="#fad02c" d="M 154.019531 271.082031 L 158.496094 266.589844 C 160.292969 264.730469 160.226562 261.769531 158.367188 259.976562 C 156.558594 258.234375 153.691406 258.234375 151.882812 259.976562 L 147.40625 264.453125 C 145.613281 266.328125 145.679688 269.285156 147.539062 271.066406 C 149.34375 272.808594 152.199219 272.808594 154.019531 271.066406 L 154.019531 271.082031 " fill-opacity="1" fill-rule="nonzero"/><g clip-path="url(#49fc39ab88)"><path fill="#fad02c" d="M 228.960938 210.203125 L 240.929688 254.855469 C 241.074219 255.355469 241.570312 255.640625 242.082031 255.511719 L 260.375 250.613281 C 260.886719 250.484375 261.1875 249.972656 261.042969 249.472656 C 261.042969 249.460938 261.042969 249.460938 261.042969 249.460938 L 249.085938 204.808594 C 248.957031 204.308594 248.433594 204.007812 247.949219 204.140625 C 247.933594 204.140625 247.933594 204.140625 247.933594 204.140625 L 229.628906 209.050781 C 229.132812 209.183594 228.828125 209.691406 228.960938 210.191406 C 228.960938 210.191406 228.960938 210.191406 228.960938 210.203125 " fill-opacity="1" fill-rule="nonzero"/></g><path fill="#fad02c" d="M 171.210938 209.574219 C 176.933594 206.71875 183.546875 206.289062 189.597656 208.34375 C 194.925781 210.164062 200.402344 211.5 205.964844 212.3125 C 213.050781 214.394531 220.5 214.851562 227.78125 213.632812 L 238.046875 251.921875 C 233.542969 253.546875 229.523438 256.269531 226.355469 259.84375 L 196.132812 229.621094 C 190.621094 224.121094 181.859375 223.652344 175.796875 228.523438 C 171.644531 231.847656 167.046875 234.597656 162.136719 236.679688 C 159.78125 237.675781 157.042969 236.574219 156.035156 234.207031 C 155.550781 233.066406 155.539062 231.785156 156.007812 230.632812 C 159.324219 222.5 164.535156 215.269531 171.210938 209.574219 " fill-opacity="1" fill-rule="nonzero"/><g clip-path="url(#08f572be54)"><path fill="#fad02c" d="M 154.125 229.859375 C 152.722656 233.289062 154.371094 237.191406 157.804688 238.59375 C 159.453125 239.261719 161.300781 239.246094 162.9375 238.554688 C 168.015625 236.394531 172.769531 233.550781 177.066406 230.105469 C 182.332031 225.878906 189.925781 226.296875 194.691406 231.0625 L 225.777344 262.164062 C 227.730469 264.140625 227.703125 267.335938 225.726562 269.273438 C 223.75 271.199219 220.621094 271.199219 218.65625 269.273438 L 202.851562 253.457031 C 202.429688 253.074219 201.777344 253.113281 201.410156 253.535156 C 201.054688 253.914062 201.054688 254.503906 201.410156 254.894531 L 216.496094 269.992188 C 218.417969 271.996094 218.355469 275.179688 216.335938 277.105469 C 214.398438 278.964844 211.320312 278.964844 209.382812 277.105469 L 196.199219 263.917969 C 195.777344 263.550781 195.136719 263.578125 194.757812 263.996094 C 194.402344 264.375 194.402344 264.980469 194.757812 265.359375 L 206.347656 276.960938 C 208.324219 278.925781 208.324219 282.121094 206.347656 284.082031 C 204.382812 286.046875 201.199219 286.046875 199.222656 284.070312 L 188.929688 273.765625 C 188.511719 273.398438 187.871094 273.425781 187.488281 273.84375 C 187.136719 274.222656 187.136719 274.824219 187.488281 275.207031 L 196.027344 283.742188 C 197.976562 285.722656 197.953125 288.914062 195.988281 290.867188 C 194.011719 292.804688 190.855469 292.804688 188.902344 290.867188 L 187.398438 289.359375 C 189.441406 286.875 189.0625 283.195312 186.574219 281.164062 C 185.300781 280.128906 183.664062 279.683594 182.042969 279.917969 C 183.023438 276.332031 180.914062 272.652344 177.328125 271.671875 C 176.058594 271.316406 174.695312 271.355469 173.453125 271.773438 C 174.265625 267.558594 171.515625 263.472656 167.296875 262.648438 C 165.449219 262.292969 163.527344 262.609375 161.902344 263.5625 C 162.058594 259.859375 159.179688 256.730469 155.472656 256.570312 C 153.601562 256.492188 151.765625 257.199219 150.445312 258.535156 L 148.492188 260.488281 C 146.136719 255.917969 141.644531 252.828125 136.539062 252.25 L 146.972656 213.242188 C 153.300781 214.328125 159.792969 213.832031 165.871094 211.800781 C 160.839844 217.011719 156.847656 223.152344 154.125 229.859375 " fill-opacity="1" fill-rule="nonzero"/></g><g clip-path="url(#ede7e522b1)"><path fill="#fad02c" d="M 284.882812 88.746094 L 90.109375 88.746094 C 80.191406 88.746094 72.128906 96.804688 72.128906 106.722656 L 72.128906 301.496094 C 72.128906 311.414062 80.191406 319.476562 90.109375 319.476562 L 284.882812 319.476562 C 294.800781 319.476562 302.859375 311.414062 302.859375 301.496094 L 302.859375 106.722656 C 302.859375 96.804688 294.800781 88.746094 284.882812 88.746094 Z M 296.867188 301.496094 C 296.867188 308.117188 291.503906 313.480469 284.882812 313.480469 L 90.109375 313.480469 C 83.488281 313.480469 78.125 308.117188 78.125 301.496094 L 78.125 106.722656 C 78.125 100.101562 83.488281 94.738281 90.109375 94.738281 L 284.882812 94.738281 C 291.503906 94.738281 296.867188 100.101562 296.867188 106.722656 Z M 296.867188 301.496094 " fill-opacity="1" fill-rule="nonzero"/></g><g fill="#fdc300" fill-opacity="1"><g transform="translate(89.017811, 194.92024)"><g><path d="M 32.296875 0 L 26.421875 0 L 27.421875 -16.671875 L 18.84375 0 L 13.625 0 L 12.734375 -16.671875 L 6.046875 0 L 0.171875 0 L 10.453125 -24.1875 L 16.78125 -24.1875 L 17.921875 -7.21875 L 26.84375 -24.1875 L 33.1875 -24.1875 Z M 32.296875 0 "/></g></g></g><g fill="#fdc300" fill-opacity="1"><g transform="translate(121.834835, 194.92024)"><g><path d="M 17.421875 -9.25 L 16.359375 -17.859375 L 11.3125 -9.25 Z M 24.328125 0 L 18.59375 0 L 18 -4.875 L 8.78125 -4.875 L 5.90625 0 L 0.171875 0 L 15.578125 -24.1875 L 20.09375 -24.1875 Z M 24.328125 0 "/></g></g></g><g fill="#fdc300" fill-opacity="1"><g transform="translate(146.687619, 194.92024)"><g><path d="M 7.46875 0 L 2.140625 0 L 7.71875 -24.1875 L 13.046875 -24.1875 Z M 7.46875 0 "/></g></g></g><g fill="#fdc300" fill-opacity="1"><g transform="translate(156.642999, 194.92024)"><g><path d="M 12.375 -3.765625 C 12.945312 -3.765625 13.585938 -3.851562 14.296875 -4.03125 C 15.003906 -4.207031 15.648438 -4.503906 16.234375 -4.921875 C 16.816406 -5.335938 17.191406 -5.898438 17.359375 -6.609375 C 17.492188 -7.273438 17.359375 -7.804688 16.953125 -8.203125 C 16.554688 -8.609375 15.972656 -8.941406 15.203125 -9.203125 C 14.429688 -9.472656 13.570312 -9.71875 12.625 -9.9375 C 11.675781 -10.164062 10.742188 -10.4375 9.828125 -10.75 C 8.921875 -11.070312 8.109375 -11.492188 7.390625 -12.015625 C 6.679688 -12.535156 6.164062 -13.210938 5.84375 -14.046875 C 5.53125 -14.878906 5.523438 -15.9375 5.828125 -17.21875 C 6.117188 -18.46875 6.628906 -19.546875 7.359375 -20.453125 C 8.097656 -21.367188 8.96875 -22.128906 9.96875 -22.734375 C 10.976562 -23.347656 12.050781 -23.800781 13.1875 -24.09375 C 14.332031 -24.382812 15.445312 -24.53125 16.53125 -24.53125 C 18.195312 -24.53125 19.691406 -24.269531 21.015625 -23.75 C 22.347656 -23.226562 23.335938 -22.40625 23.984375 -21.28125 C 24.640625 -20.15625 24.773438 -18.671875 24.390625 -16.828125 L 19.234375 -16.828125 C 19.378906 -18.078125 19.144531 -18.941406 18.53125 -19.421875 C 17.914062 -19.910156 16.941406 -20.15625 15.609375 -20.15625 C 15.109375 -20.15625 14.5625 -20.070312 13.96875 -19.90625 C 13.382812 -19.75 12.847656 -19.484375 12.359375 -19.109375 C 11.867188 -18.742188 11.566406 -18.253906 11.453125 -17.640625 C 11.304688 -17.023438 11.441406 -16.535156 11.859375 -16.171875 C 12.273438 -15.816406 12.875 -15.519531 13.65625 -15.28125 C 14.4375 -15.050781 15.296875 -14.828125 16.234375 -14.609375 C 17.171875 -14.398438 18.097656 -14.140625 19.015625 -13.828125 C 19.941406 -13.523438 20.757812 -13.101562 21.46875 -12.5625 C 22.1875 -12.03125 22.695312 -11.335938 23 -10.484375 C 23.3125 -9.628906 23.316406 -8.539062 23.015625 -7.21875 C 22.679688 -5.789062 22.109375 -4.578125 21.296875 -3.578125 C 20.492188 -2.585938 19.539062 -1.789062 18.4375 -1.1875 C 17.332031 -0.582031 16.148438 -0.140625 14.890625 0.140625 C 13.640625 0.421875 12.398438 0.5625 11.171875 0.5625 C 9.835938 0.5625 8.59375 0.394531 7.4375 0.0625 C 6.289062 -0.257812 5.320312 -0.769531 4.53125 -1.46875 C 3.738281 -2.175781 3.1875 -3.066406 2.875 -4.140625 C 2.570312 -5.222656 2.585938 -6.5 2.921875 -7.96875 L 8.328125 -7.96875 C 8.066406 -6.519531 8.347656 -5.457031 9.171875 -4.78125 C 10.003906 -4.101562 11.070312 -3.765625 12.375 -3.765625 Z M 12.375 -3.765625 "/></g></g></g><g fill="#fdc300" fill-opacity="1"><g transform="translate(179.398058, 194.92024)"><g><path d="M 16.890625 -19.34375 L 12.40625 0 L 7.078125 0 L 11.5625 -19.34375 L 4.65625 -19.34375 L 5.765625 -24.1875 L 24.890625 -24.1875 L 23.796875 -19.34375 Z M 16.890625 -19.34375 "/></g></g></g><g fill="#fdc300" fill-opacity="1"><g transform="translate(199.237626, 194.92024)"><g><path d="M 17.25 -4.84375 L 16.140625 0 L 2.140625 0 L 7.71875 -24.1875 L 21.734375 -24.1875 L 20.625 -19.34375 L 11.953125 -19.34375 L 10.8125 -14.546875 L 19.125 -14.546875 L 18.03125 -9.703125 L 9.703125 -9.703125 L 8.578125 -4.84375 Z M 17.25 -4.84375 "/></g></g></g><g fill="#fdc300" fill-opacity="1"><g transform="translate(217.868343, 194.92024)"><g><path d="M 9.453125 -8.640625 L 7.46875 0 L 2.140625 0 L 7.71875 -24.1875 L 16.78125 -24.1875 C 18.082031 -24.1875 19.21875 -23.859375 20.1875 -23.203125 C 21.164062 -22.554688 21.867188 -21.648438 22.296875 -20.484375 C 22.722656 -19.316406 22.757812 -17.96875 22.40625 -16.4375 C 22.070312 -15.082031 21.535156 -13.878906 20.796875 -12.828125 C 20.066406 -11.785156 19.207031 -10.929688 18.21875 -10.265625 C 17.238281 -9.609375 16.21875 -9.148438 15.15625 -8.890625 L 20.015625 0 L 13.265625 0 L 9.5 -8.640625 Z M 14.9375 -19.984375 L 12.09375 -19.984375 L 10.421875 -12.84375 L 13.265625 -12.84375 C 14.046875 -12.84375 14.84375 -13.148438 15.65625 -13.765625 C 16.476562 -14.378906 17.03125 -15.269531 17.3125 -16.4375 C 17.550781 -17.539062 17.410156 -18.40625 16.890625 -19.03125 C 16.367188 -19.664062 15.71875 -19.984375 14.9375 -19.984375 Z M 14.9375 -19.984375 "/></g></g></g><g fill="#fdc300" fill-opacity="1"><g transform="translate(237.814581, 194.92024)"><g><path d="M 7.46875 0 L 2.140625 0 L 7.71875 -24.1875 L 13.046875 -24.1875 Z M 7.46875 0 "/></g></g></g><g fill="#fdc300" fill-opacity="1"><g transform="translate(247.769956, 194.92024)"><g><path d="M 2.484375 -2.734375 C 2.679688 -3.609375 3.148438 -4.347656 3.890625 -4.953125 C 4.640625 -5.566406 5.453125 -5.875 6.328125 -5.875 C 7.179688 -5.875 7.84375 -5.566406 8.3125 -4.953125 C 8.789062 -4.347656 8.9375 -3.609375 8.75 -2.734375 C 8.53125 -1.878906 8.046875 -1.148438 7.296875 -0.546875 C 6.554688 0.0546875 5.757812 0.359375 4.90625 0.359375 C 4.03125 0.359375 3.351562 0.0546875 2.875 -0.546875 C 2.40625 -1.148438 2.273438 -1.878906 2.484375 -2.734375 Z M 2.484375 -2.734375 "/></g></g></g><g fill="#fdc300" fill-opacity="1"><g transform="translate(258.080888, 194.92024)"><g><path d="M 18.03125 -9.703125 L 9.703125 -9.703125 L 7.46875 0 L 2.140625 0 L 7.71875 -24.1875 L 21.734375 -24.1875 L 20.625 -19.34375 L 11.953125 -19.34375 L 10.8125 -14.546875 L 19.125 -14.546875 Z M 18.03125 -9.703125 "/></g></g></g><g fill="#fdc300" fill-opacity="1"><g transform="translate(276.35606, 194.92024)"><g><path d="M 7.46875 0 L 2.140625 0 L 7.71875 -24.1875 L 13.046875 -24.1875 Z M 7.46875 0 "/></g></g></g></svg>